<svg xmlns:xlink="http://www.w3.org/1999/xlink" xmlns="http://www.w3.org/2000/svg" width="64" height="64" viewBox="0 0 64 64" fill="none">
<path d="M16.3337 8.66671C15.045 8.66671 14.0003 9.71138 14.0003 11V55.3334H18.667V48.3334C18.667 46.6765 20.0101 45.3334 21.667 45.3334H42.3337C43.9905 45.3334 45.3337 46.6765 45.3337 48.3334V55.3334H50.0003V31C50.0003 29.7114 48.9557 28.6667 47.667 28.6667H41.0003C40.0799 28.6667 39.3337 27.9205 39.3337 27V11C39.3337 9.71138 38.289 8.66671 37.0003 8.66671H16.3337ZM12.3337 58.6667C11.4132 58.6667 10.667 57.9205 10.667 57V11C10.667 7.87043 13.204 5.33337 16.3337 5.33337H37.0003C40.1299 5.33337 42.667 7.87043 42.667 11V25.3334H47.667C50.7966 25.3334 53.3337 27.8704 53.3337 31V57C53.3337 57.9205 52.5875 58.6667 51.667 58.6667H12.3337ZM22.0003 55.3334H30.3337V48.6667H22.0003V55.3334ZM33.667 55.3334H42.0003V48.6667H33.667V55.3334ZM24.0003 18.6667C24.0003 20.1395 22.8064 21.3334 21.3337 21.3334C19.8609 21.3334 18.667 20.1395 18.667 18.6667C18.667 17.1939 19.8609 16 21.3337 16C22.8064 16 24.0003 17.1939 24.0003 18.6667ZM21.3337 30.6667C22.8064 30.6667 24.0003 29.4728 24.0003 28C24.0003 26.5273 22.8064 25.3334 21.3337 25.3334C19.8609 25.3334 18.667 26.5273 18.667 28C18.667 29.4728 19.8609 30.6667 21.3337 30.6667ZM24.0003 37.3334C24.0003 38.8061 22.8064 40 21.3337 40C19.8609 40 18.667 38.8061 18.667 37.3334C18.667 35.8606 19.8609 34.6667 21.3337 34.6667C22.8064 34.6667 24.0003 35.8606 24.0003 37.3334ZM32.0003 21.3334C33.4731 21.3334 34.667 20.1395 34.667 18.6667C34.667 17.1939 33.4731 16 32.0003 16C30.5276 16 29.3337 17.1939 29.3337 18.6667C29.3337 20.1395 30.5276 21.3334 32.0003 21.3334ZM34.667 28C34.667 29.4728 33.4731 30.6667 32.0003 30.6667C30.5276 30.6667 29.3337 29.4728 29.3337 28C29.3337 26.5273 30.5276 25.3334 32.0003 25.3334C33.4731 25.3334 34.667 26.5273 34.667 28ZM32.0003 40C33.4731 40 34.667 38.8061 34.667 37.3334C34.667 35.8606 33.4731 34.6667 32.0003 34.6667C30.5276 34.6667 29.3337 35.8606 29.3337 37.3334C29.3337 38.8061 30.5276 40 32.0003 40ZM45.3337 37.3334C45.3337 38.8061 44.1398 40 42.667 40C41.1942 40 40.0003 38.8061 40.0003 37.3334C40.0003 35.8606 41.1942 34.6667 42.667 34.6667C44.1398 34.6667 45.3337 35.8606 45.3337 37.3334Z" fill="#0078D4"/>
</svg>