<svg xmlns:xlink="http://www.w3.org/1999/xlink" xmlns="http://www.w3.org/2000/svg" width="64" height="64" viewBox="0 0 64 64" fill="none">
<path d="M22.6667 13.9467C22.6667 10.6329 25.353 7.94666 28.6667 7.94666H35.3333C38.647 7.94666 41.3333 10.6329 41.3333 13.9467V18.6666H50C53.3137 18.6666 56 21.3529 56 24.6666V54C56 55.1045 55.1046 56 54 56H10C8.89543 56 8 55.1045 8 54V32.6666C8 29.3529 10.6863 26.6666 14 26.6666H22.6667V13.9467ZM26.6667 52H37.3333V13.9467C37.3333 12.8421 36.4379 11.9467 35.3333 11.9467H28.6667C27.5621 11.9467 26.6667 12.8421 26.6667 13.9467V52ZM22.6667 30.6666H14C12.8954 30.6666 12 31.5621 12 32.6666V52H22.6667V30.6666ZM41.3333 52H52V24.6666C52 23.5621 51.1046 22.6666 50 22.6666H41.3333V52Z" fill="#0078D4"/>
</svg>