<svg xmlns:xlink="http://www.w3.org/1999/xlink" xmlns="http://www.w3.org/2000/svg" width="64" height="64" viewBox="0 0 64 64" fill="none">
<path d="M50.6663 12C48.4572 12 46.6663 13.7909 46.6663 16C46.6663 18.2091 48.4572 20 50.6663 20C52.8755 20 54.6663 18.2091 54.6663 16C54.6663 13.7909 52.8755 12 50.6663 12ZM42.6663 16C42.6663 11.5817 46.2481 8 50.6663 8C55.0846 8 58.6663 11.5817 58.6663 16C58.6663 20.4183 55.0846 24 50.6663 24C50.2349 24 49.8115 23.9658 49.3985 23.9001L43.9636 32.8558C44.8281 34.1335 45.333 35.6745 45.333 37.3333C45.333 41.7516 41.7513 45.3333 37.333 45.3333C34.9254 45.3333 32.7661 44.2698 31.2995 42.5868L21.3219 47.5748C21.3293 47.7156 21.333 47.8574 21.333 48C21.333 52.4183 17.7513 56 13.333 56C8.91473 56 5.33301 52.4183 5.33301 48C5.33301 43.5817 8.91473 40 13.333 40C16.1761 40 18.6728 41.4831 20.0917 43.7178L29.509 39.01C29.3937 38.4693 29.333 37.9084 29.333 37.3333C29.333 32.9151 32.9147 29.3333 37.333 29.3333C38.6191 29.3333 39.8343 29.6368 40.9109 30.1761L45.7051 22.2762C43.854 20.811 42.6663 18.5442 42.6663 16ZM37.333 33.3333C35.1239 33.3333 33.333 35.1242 33.333 37.3333C33.333 39.5425 35.1239 41.3333 37.333 41.3333C39.5421 41.3333 41.333 39.5425 41.333 37.3333C41.333 35.1242 39.5421 33.3333 37.333 33.3333ZM13.333 44C11.1239 44 9.33301 45.7909 9.33301 48C9.33301 50.2091 11.1239 52 13.333 52C15.5421 52 17.333 50.2091 17.333 48C17.333 45.7909 15.5421 44 13.333 44Z" fill="#0078D4"/>
</svg>