<svg xmlns:xlink="http://www.w3.org/1999/xlink" xmlns="http://www.w3.org/2000/svg" width="24" height="24" viewBox="0 0 29 29" fill="none">
<path d="M14.7667 0.716826C12.8519 0.712882 10.9573 1.10844 9.20402 1.87821C7.45074 2.64799 5.87733 3.77506 4.58433 5.18739C3.29132 6.59973 2.30717 8.26627 1.69476 10.0805C1.08235 11.8948 0.855148 13.8168 1.02767 15.7239C1.2002 17.6309 1.76866 19.481 2.69673 21.1558C3.6248 22.8307 4.89207 24.2936 6.41754 25.4509C7.94302 26.6083 9.69316 27.4347 11.5561 27.8773C13.4191 28.3199 15.3539 28.369 17.2369 28.0215L16.8309 27.6715L15.6456 26.469C15.5449 26.3673 15.478 26.2371 15.4538 26.096C15.4296 25.955 15.4493 25.8099 15.5103 25.6804L16.2958 24.0159L16.0578 23.4404L14.5925 22.9613L14.3529 22.8913C14.2079 22.8489 14.0806 22.7606 13.99 22.6398C13.8994 22.5189 13.8505 22.3719 13.8505 22.2208V20.5315C13.8508 20.3872 13.8958 20.2466 13.9794 20.129C14.063 20.0114 14.181 19.9227 14.3171 19.875L16.0563 19.2528L16.2943 18.6804L15.5803 17.2897L15.4667 17.0626C15.3993 16.9304 15.3756 16.7802 15.3991 16.6337C15.4226 16.4872 15.492 16.352 15.5974 16.2475L16.7858 15.0715C16.8885 14.9697 17.0203 14.9023 17.163 14.8786C17.3057 14.855 17.4521 14.8761 17.5823 14.9393L19.2529 15.7482L19.8363 15.5288L20.3029 14.1288C20.3371 14.0267 20.3946 13.9341 20.4709 13.8582L20.5565 13.7726C20.6215 13.7078 20.6987 13.6564 20.7835 13.6215C20.8684 13.5865 20.9593 13.5686 21.0511 13.5688H22.7187C22.8593 13.5687 22.9967 13.611 23.1129 13.69C23.2292 13.7691 23.3189 13.8814 23.3705 14.0122L23.9771 15.5677L24.534 15.7233L25.9729 14.9859L26.2 14.8724C26.2963 14.8232 26.403 14.7976 26.5111 14.7977C26.6033 14.7974 26.6947 14.8154 26.7798 14.8507C26.865 14.8859 26.9423 14.9377 27.0074 15.003L27.6545 15.6533L28.1865 16.1899C28.2854 16.2893 28.3521 16.4161 28.3778 16.5539C28.481 15.8697 28.533 15.1786 28.5334 14.4866C28.5338 12.6785 28.178 10.888 27.4863 9.21737C26.7947 7.54676 25.7807 6.02877 24.5023 4.75009C23.2239 3.47141 21.7061 2.45708 20.0357 1.76505C18.3652 1.07301 16.5748 0.716826 14.7667 0.716826V0.716826Z" fill="#0078D4"/>
<path d="M15.6457 26.4691C15.5451 26.3673 15.4781 26.2371 15.4539 26.096C15.4297 25.955 15.4494 25.8099 15.5104 25.6804L16.2959 24.016L16.0579 23.4404L14.5926 22.9613L14.3531 22.8913C14.2081 22.8489 14.0807 22.7607 13.9901 22.6398C13.8996 22.5189 13.8506 22.3719 13.8506 22.2209V20.5315C13.8509 20.3873 13.8959 20.2466 13.9795 20.1291C14.0631 20.0115 14.1811 19.9227 14.3173 19.8751L16.0564 19.2529L16.2944 18.6804L15.5804 17.2897L15.4668 17.0626C15.3994 16.9305 15.3757 16.7803 15.3992 16.6338C15.4227 16.4873 15.4921 16.352 15.5975 16.2475L16.7859 15.0715C16.8887 14.9697 17.0205 14.9024 17.1631 14.8787C17.3058 14.855 17.4523 14.8762 17.5824 14.9393L19.2531 15.7482L19.8364 15.5289L20.3031 14.1289C20.3372 14.0268 20.3947 13.9341 20.4711 13.8582L20.5566 13.7726C20.6216 13.7078 20.6988 13.6565 20.7837 13.6215C20.8685 13.5865 20.9595 13.5686 21.0513 13.5689H22.7188C22.8594 13.5688 22.9968 13.611 23.1131 13.6901C23.2293 13.7691 23.3191 13.8814 23.3706 14.0122L23.9773 15.5677L24.5342 15.7233L25.9731 14.986L26.2002 14.8724C26.2702 14.8319 26.348 14.8068 26.4285 14.7988C26.5089 14.7907 26.5902 14.7999 26.6668 14.8257C26.6668 14.8009 26.6668 14.776 26.6668 14.7511C26.6674 12.3981 25.9703 10.0978 24.6636 8.141C23.3568 6.18422 21.4992 4.65888 19.3256 3.75787C17.1519 2.85685 14.7599 2.62063 12.452 3.07907C10.1441 3.53751 8.02402 4.67002 6.35977 6.3334C4.69553 7.99677 3.5619 10.1163 3.10225 12.424C2.64261 14.7316 2.87758 17.1237 3.77746 19.2978C4.67734 21.4719 6.20171 23.3304 8.1578 24.6381C10.1139 25.9459 12.4138 26.6442 14.7668 26.6449C15.1044 26.6449 15.4373 26.6215 15.7686 26.5935L15.6457 26.4691Z" fill="url(#paint0_linear_241_47259)"/>
<path d="M16.2955 24.0157L16.0575 23.4402L14.5922 22.961L14.3527 22.891C14.2077 22.8487 14.0803 22.7604 13.9897 22.6395C13.8992 22.5186 13.8502 22.3717 13.8502 22.2206V20.5313C13.8505 20.387 13.8955 20.2464 13.9791 20.1288C14.0627 20.0112 14.1807 19.9225 14.3169 19.8748L16.056 19.2526L16.294 18.6802L15.58 17.2895L15.4664 17.0624C15.399 16.9302 15.3753 16.78 15.3988 16.6335C15.4223 16.487 15.4917 16.3517 15.5971 16.2473L16.7855 15.0713C16.8883 14.9695 17.0201 14.9021 17.1627 14.8784C17.3054 14.8547 17.4519 14.8759 17.582 14.939L19.2527 15.7479L19.836 15.5286L20.3027 14.1286C20.3368 14.0265 20.3943 13.9338 20.4707 13.8579L20.5562 13.7724C20.6212 13.7076 20.6984 13.6562 20.7833 13.6212C20.8681 13.5863 20.9591 13.5684 21.0509 13.5686H22.7184C22.859 13.5685 22.9964 13.6107 23.1127 13.6898C23.2289 13.7689 23.3187 13.8811 23.3702 14.0119L23.9769 15.5675L24.4062 15.6888C24.6355 13.7335 24.265 11.7548 23.3439 10.0149C22.4228 8.27497 20.9946 6.85618 19.2486 5.94661C17.5026 5.03705 15.5214 4.6797 13.5677 4.92194C11.614 5.16419 9.7801 5.99458 8.30915 7.30301C6.8382 8.61144 5.79973 10.3361 5.33144 12.2483C4.86315 14.1604 4.98717 16.1698 5.68705 18.0098C6.38693 19.8499 7.6296 21.4338 9.25029 22.5514C10.871 23.669 12.7931 24.2676 14.7618 24.2677C15.2548 24.2641 15.7467 24.2225 16.2333 24.1433L16.2955 24.0157Z" fill="#5EA0EF"/>
<path d="M13.8503 20.5313C13.8505 20.387 13.8956 20.2464 13.9791 20.1288C14.0627 20.0112 14.1808 19.9225 14.3169 19.8748L16.056 19.2526L16.294 18.6801L15.58 17.2895L15.4665 17.0624C15.3991 16.9302 15.3754 16.78 15.3989 16.6335C15.4223 16.487 15.4918 16.3517 15.5971 16.2473L16.7856 15.0713C16.8883 14.9695 17.0201 14.9021 17.1628 14.8784C17.3054 14.8547 17.4519 14.8759 17.582 14.939L19.2527 15.7479L19.836 15.5286L20.3027 14.1286C20.3368 14.0265 20.3944 13.9338 20.4707 13.8579L20.5563 13.7724C20.6213 13.7076 20.6984 13.6562 20.7833 13.6212C20.8682 13.5863 20.9591 13.5684 21.0509 13.5686H21.1271C20.934 12.392 20.4186 11.292 19.6381 10.3907C18.8576 9.48937 17.8426 8.82196 16.7058 8.4626C15.569 8.10323 14.3548 8.06596 13.198 8.35492C12.0413 8.64388 10.9872 9.24777 10.1529 10.0995C9.31865 10.9513 8.73674 12.0176 8.47181 13.1801C8.20689 14.3426 8.26931 15.5558 8.65217 16.6849C9.03502 17.8141 9.72331 18.815 10.6406 19.5766C11.5579 20.3383 12.6684 20.8308 13.8487 20.9995L13.8503 20.5313Z" fill="#005BA1"/>
<path d="M12.6423 14.1753C13.7128 14.1753 14.5805 13.3075 14.5805 12.2371C14.5805 11.1666 13.7128 10.2988 12.6423 10.2988C11.5719 10.2988 10.7041 11.1666 10.7041 12.2371C10.7041 13.3075 11.5719 14.1753 12.6423 14.1753Z" fill="#83B9F9"/>
<path d="M14.767 15.5412C15.242 15.5412 15.6272 15.1561 15.6272 14.681C15.6272 14.2059 15.242 13.8208 14.767 13.8208C14.2919 13.8208 13.9067 14.2059 13.9067 14.681C13.9067 15.1561 14.2919 15.5412 14.767 15.5412Z" fill="#83B9F9"/>
<path d="M29.0002 22.1398V20.4614L28.91 20.3774L27.1989 19.7972L26.7555 18.6414L27.6064 16.8774L27.6966 16.6783L27.1646 16.1432L26.5113 15.4945L26.2873 15.6081L24.6089 16.4683L23.4515 16.1447L22.7204 14.2656H21.0529L20.9673 14.3512L20.3886 16.0623L19.2142 16.5025L17.2729 15.5692L16.0891 16.739L16.2026 16.9598L17.0629 18.6367L16.5837 19.7925L14.5615 20.5252V22.2145L14.8011 22.2845L16.5931 22.8772L17.0737 24.033L16.156 25.979L17.3413 27.1814L17.5669 27.0679L19.2469 26.2076L20.4026 26.6867L21.1384 28.709H22.8169L22.8869 28.4694L23.4795 26.6774L24.6229 26.1967L26.5844 27.1145L27.7713 25.9292L27.6577 25.7036L26.7975 24.0236L27.1289 22.8492L29.0002 22.1398ZM21.9302 23.6954C21.4641 23.6982 21.0077 23.5627 20.6186 23.306C20.2295 23.0494 19.9253 22.6831 19.7443 22.2535C19.5634 21.824 19.5139 21.3504 19.6022 20.8927C19.6904 20.4351 19.9123 20.0138 20.2399 19.6823C20.5676 19.3508 20.9861 19.1238 21.4427 19.0302C21.8993 18.9365 22.3734 18.9804 22.8051 19.1562C23.2368 19.332 23.6066 19.6318 23.8679 20.0178C24.1292 20.4038 24.2701 20.8586 24.2729 21.3247V21.3387C24.2716 21.9608 24.0248 22.5573 23.5861 22.9983C23.1474 23.4394 22.5523 23.6893 21.9302 23.6938V23.6954Z" fill="#50E6FF"/>
<defs>
<linearGradient id="paint0_linear_241_47259" x1="14.7668" y1="26.6449" x2="14.7668" y2="2.85108" gradientUnits="userSpaceOnUse">
<stop stop-color="#5EA0EF"/>
<stop offset="1" stop-color="#0078D4"/>
</linearGradient>
</defs>
</svg>