<svg xmlns:xlink="http://www.w3.org/1999/xlink" xmlns="http://www.w3.org/2000/svg" width="24" height="24" viewBox="0 0 28 28" fill="none">
<path fill-rule="evenodd" clip-rule="evenodd" d="M14.0698 3.30078L12.8596 4.30528V7.15645L14.0698 6.15196L22.1241 12.8389L19.4082 22.0427H8.5578L8.48839 21.7936H6.21143L6.89232 24.236H21.0482L24.6369 12.0738L14.0698 3.30078Z" fill="#DC5900"/>
<path fill-rule="evenodd" clip-rule="evenodd" d="M5.99879 12.8526L12.8613 7.15538V4.3042L3.50439 12.0727L6.21317 21.7925H8.49013L5.99879 12.8526Z" fill="#E58C58"/>
<path fill-rule="evenodd" clip-rule="evenodd" d="M14.0728 1.3125C16.2752 1.3125 18.0607 3.09793 18.0607 5.30037C18.0607 7.50281 16.2752 9.28773 14.0728 9.28773C11.8704 9.28773 10.0854 7.5023 10.0854 5.30037C10.0849 3.09793 11.8704 1.3125 14.0728 1.3125Z" fill="#FF8B00"/>
<path fill-rule="evenodd" clip-rule="evenodd" d="M14.6348 1.35688C14.5715 1.3477 14.5087 1.33749 14.4449 1.33187C14.3224 1.32013 14.1984 1.31299 14.0728 1.31299C13.935 1.31299 13.7992 1.31962 13.665 1.3334C11.654 1.53757 10.0854 3.23572 10.0854 5.30086C10.0854 5.48206 10.1018 5.65968 10.1253 5.83424C10.1309 5.87712 10.1375 5.91948 10.1447 5.96236C10.1727 6.13028 10.2079 6.29515 10.2564 6.45542C10.4805 7.19705 10.9154 7.84579 11.4906 8.33579C11.5764 8.40929 11.6667 8.47819 11.7586 8.54404C11.779 8.55833 11.7979 8.57466 11.8188 8.58844C12.048 8.74667 12.295 8.87989 12.5553 8.98759C12.5962 9.00392 12.638 9.01719 12.6794 9.03301C12.7677 9.06619 12.8565 9.09732 12.9473 9.12438C12.9647 9.12948 12.9826 9.13305 13.0004 9.13816L14.7624 1.37628C14.72 1.36913 14.6771 1.36301 14.6348 1.35688Z" fill="#FAB05E"/>
<path fill-rule="evenodd" clip-rule="evenodd" d="M14.4443 1.33203C14.5081 1.33816 14.5709 1.34836 14.6342 1.35704C14.5709 1.34836 14.5081 1.33816 14.4443 1.33203Z" fill="#FF8B00"/>
<path fill-rule="evenodd" clip-rule="evenodd" d="M14.0728 1.3125C14.1983 1.3125 14.3223 1.32016 14.4448 1.33139C14.3223 1.31965 14.1983 1.3125 14.0728 1.3125Z" fill="#FAB05E"/>
<path fill-rule="evenodd" clip-rule="evenodd" d="M14.7639 1.37429C14.7215 1.36663 14.6786 1.36357 14.6357 1.35693C14.6786 1.36357 14.721 1.36918 14.7633 1.37633L14.7639 1.37429Z" fill="#FAB05E"/>
<path fill-rule="evenodd" clip-rule="evenodd" d="M8.28621 18.8579C10.4887 18.8579 12.2741 20.6433 12.2741 22.8453C12.2741 25.0477 10.4887 26.8331 8.28621 26.8331C6.08377 26.8331 4.29834 25.0477 4.29834 22.8453C4.29834 20.6433 6.08377 18.8579 8.28621 18.8579Z" fill="#FF8B00"/>
<path fill-rule="evenodd" clip-rule="evenodd" d="M5.40033 20.0987C5.37327 20.1273 5.34724 20.1564 5.32121 20.1855C5.25792 20.2559 5.19718 20.3284 5.13899 20.4029C5.11194 20.4376 5.08591 20.4723 5.06039 20.508C5.00731 20.581 4.95678 20.6555 4.9088 20.7326C4.88379 20.7719 4.85929 20.8117 4.83581 20.8526C4.79191 20.9286 4.75108 21.0067 4.71178 21.0858C4.68983 21.1297 4.66788 21.1731 4.64797 21.218C4.61224 21.2976 4.5806 21.3793 4.54997 21.461C4.53262 21.5085 4.51425 21.5549 4.49842 21.6024C4.47086 21.6866 4.4484 21.7728 4.42594 21.8596C4.41369 21.9076 4.39991 21.9551 4.38919 22.0036C4.36878 22.098 4.355 22.1939 4.34121 22.2904C4.33509 22.3333 4.32641 22.3751 4.32182 22.4185C4.30651 22.5589 4.29834 22.7018 4.29834 22.8457C4.29834 25.0482 6.08377 26.8336 8.28621 26.8336C8.41484 26.8336 8.54193 26.8265 8.66749 26.8142C8.71904 26.8091 8.76957 26.8004 8.82011 26.7938C8.87931 26.7856 8.93903 26.777 8.99773 26.7662L10.6208 19.6184C10.6112 19.6112 10.6025 19.6041 10.5928 19.5969C10.4437 19.4913 10.2875 19.3943 10.1237 19.3096C10.1023 19.2978 10.0798 19.2887 10.0579 19.2774C9.90219 19.1998 9.7414 19.132 9.57501 19.0753C9.55561 19.0687 9.53724 19.0605 9.51784 19.0544C9.34226 18.9972 9.16055 18.9543 8.97476 18.9217C8.93903 18.9155 8.90228 18.9104 8.86655 18.9053C8.67617 18.8773 8.48374 18.8589 8.28621 18.8589C8.10042 18.8589 7.91871 18.8752 7.73956 18.9002C6.92851 19.0115 6.19708 19.3657 5.61776 19.8884C5.54273 19.9563 5.46974 20.0257 5.40033 20.0987Z" fill="#FAB05E"/>
<path fill-rule="evenodd" clip-rule="evenodd" d="M19.856 18.8579C22.0585 18.8579 23.8439 20.6433 23.8439 22.8453C23.8439 25.0477 22.0585 26.8326 19.856 26.8326C17.6536 26.8326 15.8687 25.0472 15.8687 22.8453C15.8687 20.6433 17.6536 18.8579 19.856 18.8579Z" fill="#FF8B00"/>
<path fill-rule="evenodd" clip-rule="evenodd" d="M22.8458 8.09131C25.0482 8.09131 26.8331 9.87674 26.8331 12.0787C26.8331 14.2811 25.0477 16.066 22.8458 16.066C20.6433 16.066 18.8579 14.2806 18.8579 12.0787C18.8579 9.87674 20.6433 8.09131 22.8458 8.09131Z" fill="#FF8B00"/>
<path fill-rule="evenodd" clip-rule="evenodd" d="M5.30037 8.09131C7.50281 8.09131 9.28773 9.87674 9.28773 12.0787C9.28773 14.2811 7.5023 16.066 5.30037 16.066C3.09793 16.0665 1.3125 14.2816 1.3125 12.0792C1.3125 9.87674 3.09793 8.09131 5.30037 8.09131Z" fill="#FAB05E"/>
</svg>