<svg xmlns:xlink="http://www.w3.org/1999/xlink" xmlns="http://www.w3.org/2000/svg" width="24" height="24" viewBox="0 0 28 28" fill="none">
<path d="M4.52961 8.05379C4.45703 8.04973 4.38875 8.01787 4.33884 7.96476C4.28892 7.91166 4.26117 7.84135 4.26128 7.7683V7.7683C4.26128 6.92701 3.92868 6.12017 3.33666 5.52529C2.74463 4.9304 1.94168 4.5962 1.10443 4.5962C1.03173 4.59631 0.96176 4.56842 0.908909 4.51827C0.856058 4.46811 0.824351 4.39951 0.820312 4.32657C0.820312 4.28908 0.827661 4.25196 0.84194 4.21732C0.856218 4.18268 0.877146 4.15121 0.903528 4.1247C0.929911 4.09819 0.961232 4.07716 0.995702 4.06282C1.03017 4.04847 1.06712 4.04108 1.10443 4.04108C1.94168 4.04108 2.74463 3.70688 3.33666 3.112C3.92868 2.51711 4.26128 1.71028 4.26128 0.868985C4.26117 0.795938 4.28892 0.725627 4.33884 0.672521C4.38875 0.619415 4.45703 0.587554 4.52961 0.583496V0.583496C4.56692 0.583496 4.60387 0.59088 4.63834 0.605228C4.67281 0.619575 4.70413 0.640604 4.73051 0.667114C4.75689 0.693624 4.77782 0.725096 4.7921 0.759733C4.80638 0.79437 4.81373 0.831494 4.81373 0.868985V0.868985C4.81373 1.71028 5.14632 2.51711 5.73835 3.112C6.33037 3.70688 7.13333 4.04108 7.97057 4.04108C8.00789 4.04108 8.04483 4.04847 8.0793 4.06282C8.11377 4.07716 8.14509 4.09819 8.17148 4.1247C8.19786 4.15121 8.21879 4.18268 8.23306 4.21732C8.24734 4.25196 8.25469 4.28908 8.25469 4.32657C8.25065 4.39951 8.21895 4.46811 8.16609 4.51827C8.11324 4.56842 8.04327 4.59631 7.97057 4.5962V4.5962C7.13333 4.5962 6.33037 4.9304 5.73835 5.52529C5.14632 6.12017 4.81373 6.92701 4.81373 7.7683C4.81373 7.84402 4.78379 7.91663 4.73051 7.97017C4.67723 8.02371 4.60496 8.05379 4.52961 8.05379V8.05379Z" fill="#50E6FF"/>
<path d="M24.432 27.3893C24.3733 27.3893 24.3171 27.3659 24.2757 27.3243C24.2343 27.2826 24.211 27.2262 24.211 27.1673C24.211 26.49 23.9432 25.8405 23.4667 25.3616C22.9901 24.8828 22.3437 24.6137 21.6697 24.6137C21.6111 24.6137 21.5549 24.5903 21.5135 24.5487C21.472 24.507 21.4487 24.4506 21.4487 24.3917C21.4487 24.3328 21.472 24.2763 21.5135 24.2347C21.5549 24.193 21.6111 24.1696 21.6697 24.1696C22.3437 24.1696 22.9901 23.9006 23.4667 23.4217C23.9432 22.9428 24.211 22.2933 24.211 21.6161C24.211 21.5572 24.2343 21.5007 24.2757 21.4591C24.3171 21.4174 24.3733 21.394 24.432 21.394C24.4906 21.394 24.5468 21.4174 24.5882 21.4591C24.6297 21.5007 24.6529 21.5572 24.6529 21.6161C24.6529 22.2933 24.9207 22.9428 25.3973 23.4217C25.8738 23.9006 26.5202 24.1696 27.1942 24.1696C27.2528 24.1696 27.309 24.193 27.3505 24.2347C27.3919 24.2763 27.4152 24.3328 27.4152 24.3917C27.4152 24.4506 27.3919 24.507 27.3505 24.5487C27.309 24.5903 27.2528 24.6137 27.1942 24.6137C26.8605 24.6137 26.53 24.6798 26.2217 24.8081C25.9134 24.9364 25.6332 25.1245 25.3973 25.3616C25.1613 25.5988 24.9741 25.8803 24.8464 26.1901C24.7187 26.4999 24.6529 26.8319 24.6529 27.1673C24.6529 27.2262 24.6297 27.2826 24.5882 27.3243C24.5468 27.3659 24.4906 27.3893 24.432 27.3893Z" fill="#50E6FF"/>
<path d="M23.4705 11.6884C23.9174 13.5615 23.8014 15.5258 23.1373 17.3327C22.4731 19.1396 21.2905 20.708 19.7392 21.8395C18.1879 22.9711 16.3375 23.6149 14.4219 23.6896C12.5064 23.7643 10.6119 23.2666 8.97794 22.2593C7.34398 21.252 6.04402 19.7804 5.24245 18.0307C4.44088 16.2809 4.17371 14.3316 4.47474 12.4293C4.77577 10.527 5.63148 8.75712 6.93363 7.34351C8.23578 5.92991 9.92589 4.93608 11.7902 4.48773C14.2893 3.8867 16.9237 4.30761 19.1141 5.65792C21.3045 7.00824 22.8715 9.17738 23.4705 11.6884V11.6884Z" fill="url(#paint0_radial_241_47262)"/>
<path d="M8.8049 20.5044C9.14484 20.5044 9.48146 20.4371 9.79552 20.3064C10.1096 20.1757 10.395 19.9841 10.6353 19.7426C10.8757 19.501 11.0664 19.2143 11.1965 18.8987C11.3266 18.5831 11.3935 18.2449 11.3935 17.9033C11.3935 17.5617 11.3266 17.2235 11.1965 16.9079C11.0664 16.5923 10.8757 16.3056 10.6353 16.064C10.395 15.8225 10.1096 15.6309 9.79552 15.5002C9.48146 15.3695 9.14484 15.3022 8.8049 15.3022C8.81273 15.2284 8.81273 15.1539 8.8049 15.0801C8.79664 14.3901 8.5191 13.7309 8.03202 13.2444C7.54493 12.758 6.88724 12.4831 6.2005 12.479H4.25904C4.12608 13.6907 4.21705 14.9167 4.52737 16.0952C4.92265 17.7397 5.72638 19.2567 6.86344 20.5044H8.8049Z" fill="#F2F2F2"/>
<path d="M23.469 12.0991C23.1533 10.4018 22.384 8.82282 21.2435 7.5313C21.0965 7.46718 20.943 7.41932 20.7857 7.38855C20.3774 7.26892 19.9476 7.24292 19.5279 7.31249C19.1083 7.38205 18.7095 7.5454 18.3611 7.79049C18.0127 8.03557 17.7234 8.35613 17.5147 8.72852C17.3061 9.10092 17.1832 9.51564 17.1553 9.94209H16.8239C16.1764 9.94261 15.5499 10.173 15.055 10.5925C14.5601 11.0121 14.2287 11.5938 14.1192 12.2351C14.0097 12.8763 14.1291 13.5358 14.4565 14.0972C14.7839 14.6585 15.2981 15.0856 15.9084 15.3029C16.1818 15.403 16.4698 15.4566 16.7607 15.4615H19.9176C21.2303 14.4867 22.4225 13.3579 23.469 12.0991V12.0991Z" fill="#F2F2F2"/>
<path d="M26.9263 5.76769C25.9319 4.18164 23.6116 3.46791 20.3759 3.94373C19.2866 4.10949 18.2105 4.3533 17.1559 4.67331C18.0106 4.96539 18.8228 5.37077 19.5709 5.87871L20.7073 5.6408C21.2818 5.55044 21.8621 5.50273 22.4436 5.49806C24.022 5.49806 25.0954 5.89457 25.6005 6.65587C26.2003 7.67095 25.6952 9.39974 24.2114 11.414C22.1311 13.9833 19.5876 16.1356 16.7139 17.7582C13.856 19.5588 10.6859 20.8018 7.36965 21.422C4.90731 21.7868 3.13947 21.422 2.53967 20.4069C1.93987 19.3919 2.44497 17.6631 3.92868 15.6488C4.1181 15.4109 4.16545 15.284 4.37064 15.0302C4.26012 14.172 4.26012 13.3031 4.37064 12.445C3.71267 13.1242 3.11087 13.8562 2.57124 14.6337C0.613994 17.2665 0.0773299 19.6139 1.07174 21.2793C1.59465 21.9841 2.29287 22.5383 3.09632 22.8863C3.89976 23.2343 4.78017 23.3638 5.64917 23.2618C6.33104 23.2643 7.01199 23.2112 7.68533 23.1032C11.1682 22.4704 14.4999 21.1786 17.5031 19.2967C20.5715 17.5325 23.2811 15.2025 25.49 12.4291C27.3841 9.79625 27.9207 7.43304 26.9263 5.76769Z" fill="#50E6FF"/>
<defs>
<radialGradient id="paint0_radial_241_47262" cx="0" cy="0" r="1" gradientUnits="userSpaceOnUse" gradientTransform="translate(13.4425 13.7287) scale(9.76729 9.72011)">
<stop offset="0.18" stop-color="#5EA0EF"/>
<stop offset="1" stop-color="#0078D4"/>
</radialGradient>
</defs>
</svg>