<svg xmlns:xlink="http://www.w3.org/1999/xlink" xmlns="http://www.w3.org/2000/svg" width="24" height="24" viewBox="0 0 28 28" fill="none">
<path fill-rule="evenodd" clip-rule="evenodd" d="M11.4845 25.0367H2.96317V16.5667H4.7085C4.49855 16.0272 4.39383 15.4522 4.4005 14.8727V14.77H1.1665V26.8334H13.2812V19.6467H11.4845V25.0367Z" fill="#9FA0A1"/>
<path fill-rule="evenodd" clip-rule="evenodd" d="M23.4967 16.5667H25.0367V25.088H16.5154V19.698H14.7188V26.8334H26.8334V14.77H23.0347C23.3258 15.288 23.4844 15.8701 23.4967 16.464V16.5667Z" fill="#9FA0A1"/>
<path fill-rule="evenodd" clip-rule="evenodd" d="M2.96317 11.4332V2.96317H11.4845V7.89117C12.0194 7.49488 12.6313 7.21511 13.2812 7.06984V1.1665H1.1665V13.2298H4.65717C4.90357 12.5738 5.28908 11.9783 5.7865 11.4845L2.96317 11.4332Z" fill="#9FA0A1"/>
<path fill-rule="evenodd" clip-rule="evenodd" d="M16.5154 6.8645V2.96317H25.0367V11.4845H21.2894C21.4573 12.0512 21.544 12.639 21.5461 13.2298V13.2812H26.8334V1.1665H14.7188V6.76184C14.8728 6.76184 14.9754 6.7105 15.1294 6.7105C15.594 6.73617 16.0565 6.78802 16.5154 6.8645Z" fill="#9FA0A1"/>
<path fill-rule="evenodd" clip-rule="evenodd" d="M22.1104 16.4127C22.113 15.3661 21.267 14.516 20.2203 14.5134H20.2111H19.9544C20.0766 14.0786 20.1454 13.6305 20.1598 13.1787C20.1762 10.3888 17.9283 8.11369 15.1383 8.09726C12.9387 8.08392 10.9839 9.49558 10.3038 11.5874C9.9393 11.4652 9.55892 11.3959 9.17443 11.3821C7.24635 11.3857 5.68684 12.9513 5.69044 14.8794C5.69454 16.8019 7.252 18.3598 9.17443 18.3634H20.3651C21.362 18.2577 22.1161 17.4148 22.1104 16.4127Z" fill="#61B3D4"/>
<path fill-rule="evenodd" clip-rule="evenodd" d="M11.0229 18.3633C9.66868 16.9912 9.68305 14.7813 11.0552 13.4271C11.5141 12.9739 12.089 12.6571 12.7169 12.5113C13.0859 12.4184 13.4699 12.401 13.8462 12.46C14.0069 10.6926 15.0766 9.13669 16.6695 8.35335C16.1736 8.18497 15.6536 8.09822 15.1295 8.09668C12.9494 8.1013 11.0208 9.51143 10.3555 11.5873C9.99054 11.4652 9.61067 11.3959 9.22619 11.382C7.29811 11.3856 5.7386 12.9518 5.74219 14.8794C5.74579 16.8018 7.30324 18.3598 9.22619 18.3633H11.0229Z" fill="#80C2DC"/>
</svg>