<svg width="28" height="28" viewBox="0 0 28 28" fill="none" xmlns="http://www.w3.org/2000/svg">
<path d="M26.8332 17.3021C26.808 15.9131 26.2914 14.5779 25.3751 13.5337C24.4588 12.4895 23.2021 11.8038 21.8282 11.5984C21.7722 9.66312 20.9542 7.82829 19.5522 6.49309C18.1503 5.15788 16.2777 4.43033 14.3421 4.46873C12.7835 4.45279 11.2588 4.92372 9.98073 5.81583C8.70263 6.70794 7.73487 7.97673 7.21243 9.44521C5.55113 9.65884 4.02342 10.4669 2.91193 11.72C1.80044 12.973 1.1804 14.5862 1.1665 16.2611C1.23343 18.1246 2.02773 19.8877 3.37914 21.1724C4.73054 22.4572 6.5315 23.1614 8.39595 23.1341H9.02336H20.7302C20.8343 23.1489 20.9399 23.1489 21.0439 23.1341C22.5786 23.1082 24.0425 22.4841 25.1239 21.3947C26.2052 20.3054 26.8185 18.8369 26.8332 17.3021Z" fill="url(#paint0_linear_241_47397)"/>
<path d="M18.7483 10.5576C18.3011 9.8157 17.6438 9.22317 16.8597 8.855C16.0755 8.48683 15.1998 8.35957 14.3433 8.48934C13.4869 8.61911 12.6881 9.00007 12.0483 9.584C11.4084 10.1679 10.9562 10.9286 10.7488 11.7696C10.4947 12.8694 10.6626 14.0246 11.2194 15.0065L7.8827 18.3859C7.7775 18.4906 7.69403 18.615 7.63707 18.7521C7.5801 18.8891 7.55078 19.036 7.55078 19.1844C7.55078 19.3328 7.5801 19.4798 7.63707 19.6168C7.69403 19.7539 7.7775 19.8783 7.8827 19.983C7.98723 20.0881 8.11171 20.1713 8.24884 20.2276C8.38597 20.2839 8.53298 20.3122 8.68122 20.3109C8.82969 20.3139 8.97718 20.2863 9.11454 20.2299C9.25191 20.1735 9.37621 20.0894 9.47974 19.983L12.8021 16.6178C13.1633 16.8277 13.5521 16.9861 13.9571 17.0883C14.7984 17.2904 15.6807 17.2394 16.4931 16.9418C17.3056 16.6443 18.012 16.1134 18.5238 15.4157C19.0356 14.7181 19.33 13.8849 19.3699 13.0206C19.4098 12.1563 19.1936 11.2994 18.7483 10.5576ZM17.9783 13.552C17.8158 14.2208 17.434 14.8158 16.8938 15.2423C16.3537 15.6687 15.6863 15.902 14.9981 15.9048C14.7521 15.9068 14.5072 15.8731 14.2708 15.805C13.9101 15.7238 13.5702 15.5684 13.2727 15.3487C12.9589 15.1348 12.6881 14.8639 12.4742 14.5502C12.2325 14.1926 12.0684 13.7884 11.9922 13.3635C11.9161 12.9387 11.9297 12.5026 12.0321 12.0833C12.1867 11.4119 12.5639 10.8125 13.1024 10.3827C13.641 9.95294 14.3091 9.71806 14.9981 9.71629C15.2477 9.71663 15.4964 9.74533 15.7396 9.80185C16.5301 10.0111 17.2064 10.5234 17.6218 11.2278C17.8327 11.572 17.9729 11.9549 18.0341 12.354C18.0953 12.7531 18.0763 13.1604 17.9783 13.552V13.552Z" fill="#F2F2F2"/>
<path d="M14.9837 15.9046C16.6769 15.9046 18.0495 14.5257 18.0495 12.8246C18.0495 11.1236 16.6769 9.74463 14.9837 9.74463C13.2905 9.74463 11.918 11.1236 11.918 12.8246C11.918 14.5257 13.2905 15.9046 14.9837 15.9046Z" fill="#83B9F9"/>
<defs>
<linearGradient id="paint0_linear_241_47397" x1="13.9998" y1="1.67392" x2="13.9998" y2="27.2693" gradientUnits="userSpaceOnUse">
<stop offset="0.18" stop-color="#5EA0EF"/>
<stop offset="1" stop-color="#0078D4"/>
</linearGradient>
</defs>
</svg>
